<svg width="50" height="57" viewBox="0 0 50 57" fill="none" xmlns="http://www.w3.org/2000/svg">
<circle cx="25" cy="29" r="25" fill="black"/>
<path d="M38.8843 43.496C38.8843 43.688 38.8123 43.832 38.6683 43.928C38.5483 44.024 38.3923 44.072 38.2003 44.072C37.8403 44.072 37.4683 44.06 37.0843 44.036C36.7243 44.036 36.3643 44.024 36.0043 44C35.3323 43.976 34.6483 43.976 33.9523 44C33.2803 44 32.5963 44 31.9003 44C31.5163 44 31.2283 43.808 31.0363 43.424C30.0763 41.48 29.0443 39.668 27.9403 37.988C26.8603 36.308 25.7443 34.556 24.5923 32.732C24.4483 32.972 24.1483 33.428 23.6923 34.1C23.2603 34.772 22.7563 35.54 22.1803 36.404C21.6043 37.268 21.0403 38.12 20.4883 38.96C19.9603 39.8 19.5163 40.52 19.1563 41.12C18.8203 41.696 18.6523 42.032 18.6523 42.128C18.6523 42.488 18.8083 42.728 19.1203 42.848C19.4563 42.968 19.8283 43.04 20.2363 43.064C20.6683 43.064 21.0403 43.076 21.3523 43.1C21.6883 43.1 21.8563 43.196 21.8563 43.388C21.8563 43.772 21.6763 43.964 21.3163 43.964C21.1243 43.964 20.9323 43.976 20.7403 44C20.5483 44 20.3563 44 20.1643 44C19.6843 44 19.2043 43.988 18.7243 43.964C18.2683 43.916 17.8003 43.892 17.3203 43.892C16.4803 43.892 15.6283 43.916 14.7643 43.964C13.9243 44.012 13.0843 44.036 12.2443 44.036C11.9323 44.036 11.7763 43.868 11.7763 43.532C11.7763 43.22 11.8963 43.052 12.1363 43.028C12.2563 43.004 12.3763 43.004 12.4963 43.028C12.6403 43.028 12.7723 43.028 12.8923 43.028C13.4923 43.028 14.0203 42.98 14.4763 42.884C14.9323 42.788 15.3883 42.548 15.8443 42.164C16.2523 41.804 16.6483 41.42 17.0323 41.012C17.4403 40.604 17.8003 40.184 18.1123 39.752C19.1203 38.48 20.1163 37.196 21.1003 35.9C22.1083 34.58 23.0563 33.248 23.9443 31.904C22.6243 29.912 21.3283 27.92 20.0563 25.928C18.8083 23.936 17.5123 21.968 16.1683 20.024C15.9283 19.688 15.7003 19.472 15.4843 19.376C15.2923 19.256 14.9923 19.196 14.5843 19.196C14.3443 19.196 14.0803 19.208 13.7923 19.232C13.5283 19.256 13.2643 19.268 13.0003 19.268C12.8803 19.268 12.7483 19.244 12.6043 19.196C12.4603 19.124 12.3883 19.004 12.3883 18.836C12.3883 18.668 12.4003 18.524 12.4243 18.404C12.4483 18.26 12.5443 18.164 12.7123 18.116C13.2163 17.996 13.8643 17.924 14.6563 17.9C15.4723 17.876 16.1563 17.852 16.7083 17.828C17.0443 17.804 17.3683 17.78 17.6803 17.756C18.0163 17.732 18.3403 17.72 18.6523 17.72C18.9403 17.72 19.1803 17.852 19.3723 18.116C19.4923 18.212 19.5763 18.32 19.6243 18.44C19.6963 18.56 19.7803 18.68 19.8763 18.8C20.9083 20.504 21.9403 22.22 22.9723 23.948C24.0043 25.652 25.0123 27.38 25.9963 29.132C26.2123 28.796 26.5483 28.292 27.0043 27.62C27.4603 26.924 27.9523 26.156 28.4803 25.316C29.0323 24.452 29.5603 23.6 30.0643 22.76C30.5923 21.92 31.0123 21.176 31.3243 20.528C31.6603 19.856 31.8283 19.388 31.8283 19.124C31.8283 18.884 31.6963 18.752 31.4323 18.728C31.1923 18.68 30.9883 18.656 30.8203 18.656C30.5563 18.656 30.2803 18.668 29.9923 18.692C29.7283 18.716 29.4523 18.728 29.1643 18.728C28.9723 18.728 28.8523 18.692 28.8043 18.62C28.7563 18.524 28.7323 18.392 28.7323 18.224C28.7323 17.936 28.8883 17.792 29.2003 17.792C29.5123 17.792 29.8243 17.804 30.1363 17.828C30.4483 17.852 30.7603 17.864 31.0723 17.864C31.7443 17.864 32.4163 17.864 33.0883 17.864C33.7843 17.84 34.4683 17.816 35.1403 17.792C35.4763 17.768 35.8003 17.744 36.1123 17.72C36.4483 17.696 36.7843 17.684 37.1203 17.684C37.4563 17.684 37.6243 17.852 37.6243 18.188C37.6243 18.524 37.4323 18.716 37.0483 18.764C36.6883 18.812 36.2563 18.848 35.7523 18.872C35.2723 18.872 34.8643 18.98 34.5283 19.196C34.3363 19.316 34.1203 19.496 33.8803 19.736C33.6643 19.976 33.4843 20.192 33.3403 20.384C32.2603 21.992 31.1563 23.588 30.0283 25.172C28.9003 26.732 27.7483 28.292 26.5723 29.852C27.4123 31.1 28.2523 32.348 29.0923 33.596C29.9563 34.82 30.8083 36.044 31.6483 37.268C32.2243 38.108 32.8123 38.948 33.4123 39.788C34.0123 40.628 34.6363 41.444 35.2843 42.236C35.5483 42.548 35.8723 42.752 36.2563 42.848C36.6643 42.92 37.0603 42.956 37.4443 42.956C37.6123 42.956 37.7683 42.944 37.9123 42.92C38.0803 42.896 38.2483 42.884 38.4163 42.884C38.6083 42.884 38.7283 42.956 38.7763 43.1C38.8483 43.22 38.8843 43.352 38.8843 43.496Z" fill="white"/>
</svg>
