<svg width="127" height="32" viewBox="0 0 127 32" fill="none" xmlns="http://www.w3.org/2000/svg">
<path d="M7.324 23.964C5.176 23.964 3.58 23.49 2.536 22.542C1.504 21.582 0.952 20.076 0.88 18.024C0.868 17.736 0.946 17.508 1.114 17.34C1.294 17.16 1.528 17.07 1.816 17.07C2.104 17.07 2.332 17.154 2.5 17.322C2.668 17.49 2.764 17.718 2.788 18.006C2.836 19.518 3.196 20.574 3.868 21.174C4.54 21.774 5.692 22.074 7.324 22.074H12.508C14.212 22.074 15.394 21.744 16.054 21.084C16.726 20.412 17.062 19.236 17.062 17.556C17.062 15.852 16.726 14.67 16.054 14.01C15.394 13.338 14.212 13.002 12.508 13.002H7.576C5.464 13.002 3.916 12.51 2.932 11.526C1.948 10.542 1.456 9 1.456 6.9C1.456 4.8 1.942 3.258 2.914 2.274C3.898 1.29 5.44 0.797999 7.54 0.797999H12.58C14.596 0.797999 16.09 1.248 17.062 2.148C18.046 3.048 18.574 4.464 18.646 6.396C18.67 6.684 18.592 6.918 18.412 7.098C18.244 7.266 18.01 7.35 17.71 7.35C17.434 7.35 17.212 7.266 17.044 7.098C16.876 6.93 16.78 6.702 16.756 6.414C16.708 5.034 16.372 4.068 15.748 3.516C15.124 2.964 14.068 2.688 12.58 2.688H7.54C5.968 2.688 4.876 3 4.264 3.624C3.652 4.236 3.346 5.328 3.346 6.9C3.346 8.472 3.652 9.57 4.264 10.194C4.888 10.806 5.992 11.112 7.576 11.112H12.508C14.74 11.112 16.372 11.634 17.404 12.678C18.436 13.71 18.952 15.336 18.952 17.556C18.952 19.776 18.436 21.402 17.404 22.434C16.372 23.454 14.74 23.964 12.508 23.964H7.324ZM26.1559 31.2C25.5199 31.2 25.2019 30.882 25.2019 30.246V7.926C25.2019 7.302 25.5199 6.99 26.1559 6.99C26.7799 6.99 27.0919 7.302 27.0919 7.926V9.528C27.6319 8.688 28.4059 8.058 29.4139 7.638C30.4219 7.206 31.7119 6.99 33.2839 6.99H34.6519C36.8959 6.99 38.5339 7.512 39.5659 8.556C40.6099 9.588 41.1319 11.226 41.1319 13.47V17.502C41.1319 19.746 40.6099 21.39 39.5659 22.434C38.5339 23.478 36.8959 24 34.6519 24H27.0919V30.246C27.0919 30.882 26.7799 31.2 26.1559 31.2ZM27.0919 22.11H34.6519C36.3679 22.11 37.5619 21.774 38.2339 21.102C38.9059 20.418 39.2419 19.218 39.2419 17.502V13.47C39.2419 11.754 38.9059 10.56 38.2339 9.888C37.5619 9.216 36.3679 8.88 34.6519 8.88H33.2839C31.3639 8.88 29.8879 9.18 28.8559 9.78C27.8359 10.38 27.2479 11.304 27.0919 12.552V22.11ZM52.4435 24C50.5715 24 49.1975 23.568 48.3215 22.704C47.4575 21.828 47.0255 20.454 47.0255 18.582C47.0255 16.71 47.4635 15.336 48.3395 14.46C49.2155 13.584 50.5835 13.146 52.4435 13.146H60.6335C60.6095 11.562 60.2495 10.458 59.5535 9.834C58.8695 9.198 57.6995 8.88 56.0435 8.88H53.9555C52.4315 8.88 51.3155 9.042 50.6075 9.366C49.8995 9.69 49.4615 10.242 49.2935 11.022C49.2095 11.322 49.0955 11.544 48.9515 11.688C48.8195 11.82 48.6035 11.886 48.3035 11.886C47.9915 11.886 47.7455 11.802 47.5655 11.634C47.3975 11.454 47.3375 11.214 47.3855 10.914C47.5415 9.546 48.1595 8.55 49.2395 7.926C50.3315 7.302 51.9035 6.99 53.9555 6.99H56.0435C58.2875 6.99 59.9255 7.512 60.9575 8.556C62.0015 9.588 62.5235 11.226 62.5235 13.47V23.046C62.5235 23.682 62.2115 24 61.5875 24C60.9515 24 60.6335 23.682 60.6335 23.046V21.264C59.4815 23.088 57.4235 24 54.4595 24H52.4435ZM52.4435 22.11H54.4595C55.6235 22.11 56.6435 21.984 57.5195 21.732C58.4075 21.468 59.1215 21.048 59.6615 20.472C60.2015 19.896 60.5255 19.128 60.6335 18.168V15.036H52.4435C51.1115 15.036 50.1875 15.294 49.6715 15.81C49.1675 16.314 48.9155 17.238 48.9155 18.582C48.9155 19.914 49.1675 20.838 49.6715 21.354C50.1875 21.858 51.1115 22.11 52.4435 22.11ZM74.9483 24C72.7043 24 71.0603 23.478 70.0163 22.434C68.9723 21.39 68.4503 19.746 68.4503 17.502V13.434C68.4503 11.19 68.9663 9.552 69.9983 8.52C71.0423 7.476 72.6923 6.966 74.9483 6.99H77.9003C79.6643 6.99 81.0083 7.29 81.9323 7.89C82.8683 8.478 83.4263 9.408 83.6063 10.68C83.6423 11.004 83.5703 11.25 83.3903 11.418C83.2223 11.586 82.9823 11.67 82.6703 11.67C82.3823 11.67 82.1663 11.598 82.0223 11.454C81.8783 11.298 81.7703 11.076 81.6983 10.788C81.5663 10.092 81.2123 9.6 80.6363 9.312C80.0603 9.024 79.1483 8.88 77.9003 8.88H74.9483C73.2323 8.856 72.0323 9.18 71.3483 9.852C70.6763 10.512 70.3403 11.706 70.3403 13.434V17.502C70.3403 19.218 70.6763 20.418 71.3483 21.102C72.0323 21.774 73.2323 22.11 74.9483 22.11H77.9003C79.1483 22.11 80.0603 21.966 80.6363 21.678C81.2123 21.39 81.5663 20.892 81.6983 20.184C81.7703 19.896 81.8783 19.68 82.0223 19.536C82.1663 19.38 82.3823 19.302 82.6703 19.302C82.9823 19.302 83.2223 19.392 83.3903 19.572C83.5703 19.74 83.6423 19.98 83.6063 20.292C83.4263 21.564 82.8683 22.5 81.9323 23.1C81.0083 23.7 79.6643 24 77.9003 24H74.9483ZM90.9067 16.224V17.538C90.9067 19.23 91.2427 20.418 91.9147 21.102C92.5987 21.774 93.7987 22.11 95.5147 22.11H98.4667C99.9787 22.11 101.077 21.918 101.761 21.534C102.457 21.138 102.871 20.46 103.003 19.5C103.051 19.2 103.147 18.972 103.291 18.816C103.447 18.66 103.681 18.582 103.993 18.582C104.305 18.582 104.539 18.672 104.695 18.852C104.863 19.02 104.929 19.26 104.893 19.572C104.737 21.084 104.131 22.2 103.075 22.92C102.019 23.64 100.483 24 98.4667 24H95.5147C93.2707 24 91.6267 23.484 90.5827 22.452C89.5387 21.408 89.0167 19.77 89.0167 17.538V13.47C89.0167 11.202 89.5387 9.552 90.5827 8.52C91.6267 7.476 93.2707 6.966 95.5147 6.99H98.4667C100.711 6.99 102.349 7.512 103.381 8.556C104.425 9.588 104.947 11.226 104.947 13.47V15.27C104.947 15.906 104.635 16.224 104.011 16.224H90.9067ZM95.5147 8.88C93.7987 8.856 92.5987 9.186 91.9147 9.87C91.2427 10.542 90.9067 11.742 90.9067 13.47V14.334H103.057V13.47C103.057 11.754 102.721 10.56 102.049 9.888C101.377 9.216 100.183 8.88 98.4667 8.88H95.5147ZM109.069 23.784C108.565 23.424 108.481 22.986 108.817 22.47L116.053 11.904L109.213 2.328C108.853 1.836 108.931 1.398 109.447 1.014C109.951 0.653999 110.395 0.731999 110.779 1.248L117.295 10.392L124.045 1.23C124.429 0.725999 124.873 0.659999 125.377 1.032C125.881 1.404 125.947 1.842 125.575 2.346L118.483 12.048L125.935 22.452C126.295 22.956 126.217 23.4 125.701 23.784C125.197 24.144 124.765 24.066 124.405 23.55L117.223 13.542L110.383 23.532C110.023 24.048 109.585 24.132 109.069 23.784Z" fill="white"/>
</svg>
